<mxfile host="app.diagrams.net" modified="2023-06-17T05:20:55.842Z" agent="Mozilla/5.0 (Windows NT 10.0; Win64; x64) AppleWebKit/537.36 (KHTML, like Gecko) Chrome/114.0.0.0 Safari/537.36" version="21.4.0" etag="6LhE5VfdkgSuW318qkeb" type="github">
  <diagram name="Page-1" id="TJKKrF1G9iV3WCQLsghk">
    <mxGraphModel>
      <root>
        <mxCell id="0" />
        <mxCell id="1" parent="0" />
      </root>
    </mxGraphModel>
  </diagram>
</mxfile>
